<svg xmlns="http://www.w3.org/2000/svg" viewBox="0 0 51.67 51.67"><defs><style>.cls-1{fill:#fff;stroke:#fff;stroke-miterlimit:10;}.cls-2{fill:#635ba9;}</style></defs><g id="Layer_2" data-name="Layer 2"><g id="four_steps" data-name="four steps"><circle class="cls-1" cx="25.83" cy="25.83" r="25.33"/><path class="cls-2" d="M32.8,18.3l.52-.09a7.66,7.66,0,0,0-15,0l.52.09a7.14,7.14,0,0,1,14,0Z"/><path class="cls-2" d="M20.41,27.66a4.93,4.93,0,0,0-1.9-8.76,5,5,0,0,0-6,4.83,4.9,4.9,0,0,0,2,3.93,7.65,7.65,0,0,0-4,4.08,2.1,2.1,0,0,0,1.94,2.89H22.5a2.1,2.1,0,0,0,1.95-2.89A7.65,7.65,0,0,0,20.41,27.66Z"/><path class="cls-2" d="M37.18,27.66a4.93,4.93,0,0,0-1.9-8.76,5,5,0,0,0-6,4.83,4.9,4.9,0,0,0,2,3.93,7.67,7.67,0,0,0-4.11,4.24A2,2,0,0,0,29,34.63H39.45a2,2,0,0,0,1.83-2.73A7.65,7.65,0,0,0,37.18,27.66Z"/></g></g></svg>