<svg xmlns="http://www.w3.org/2000/svg" viewBox="0 0 169.07 82.91"><defs><style>.cls-1{fill:#4d4d4d;}</style></defs><g id="Layer_2" data-name="Layer 2"><g id="logo"><path class="cls-1" d="M93.54,19.78A16.68,16.68,0,0,0,85,22.14c.21.15.43.3.63.46s.57.44.84.67l.24.21c.17.15.34.3.49.45l.39.39.15.15a13.46,13.46,0,1,1,0,24.24L87,48.37a13.29,13.29,0,0,1-2.74-2l-.51-.5a13.43,13.43,0,0,1,0-18.51l-.54-.48q-.33-.28-.69-.54l-.26-.19c-.16-.11-.32-.22-.49-.32l-.13-.08-.48-.28L81,25.36a16.79,16.79,0,0,0,0,22.46l.51.55a16.14,16.14,0,0,0,2.75,2.26c.22.15.44.29.67.42a16.81,16.81,0,1,0,8.58-31.27Z"/><path class="cls-1" d="M83.13,19.26l1.16.6,1.15-.6c7-3.6,8.94-7.54,9.36-10.22a8,8,0,0,0-2.29-6.95A6.88,6.88,0,0,0,87.65,0h0a6.43,6.43,0,0,0-3.37.94A6.41,6.41,0,0,0,80.93,0a6.84,6.84,0,0,0-4.86,2.09,8,8,0,0,0-2.29,7C74.19,11.72,76.15,15.66,83.13,19.26ZM77.85,3.87a4.32,4.32,0,0,1,3.08-1.35c1.82,0,3.36,1.24,3.36,2.6,0-1.36,1.54-2.6,3.36-2.6a4.35,4.35,0,0,1,3.08,1.35c2.69,2.7,3,8.26-6.44,13.16C74.8,12.13,75.15,6.57,77.85,3.87Z"/><path class="cls-1" d="M75,53.41a16.68,16.68,0,0,0,8.58-2.36L83,50.59l0,0-.34-.26,0,0L82.23,50a1.71,1.71,0,0,1-.2-.18c-.12-.09-.23-.19-.34-.29l-.28-.27L81,48.87l-.15-.16A13.32,13.32,0,0,1,75,50.05a13.46,13.46,0,1,1,5.84-25.58l.66.35a13.58,13.58,0,0,1,2.75,2l.51.51a13.44,13.44,0,0,1,0,18.5c.17.17.35.33.54.49l.68.54c.09.06.18.13.27.18a5.25,5.25,0,0,0,.49.33l.13.08c.15.1.31.19.47.28l.16.08a16.76,16.76,0,0,0,0-22.46q-.24-.27-.51-.54a16.47,16.47,0,0,0-2.74-2.26c-.22-.15-.44-.29-.67-.42A16.81,16.81,0,1,0,75,53.41Z"/><path class="cls-1" d="M37.81,76.64h-.45A2.28,2.28,0,0,1,34.84,75a7.88,7.88,0,0,1-.24-2.12,19.72,19.72,0,0,1,1.13-4.81,49.86,49.86,0,0,1,3.09-7.2,8.76,8.76,0,0,0,1.11-3.67,3.21,3.21,0,0,0-.11-.86,1.42,1.42,0,0,0-1.47-1.14,2.94,2.94,0,0,0-.86.15c-1.77.52-3.81,2.21-6.07,5-2,2.5-3.74,4.85-5.15,7,.08-.23.17-.5.27-.82,1.46-4.34,2.2-7.49,2.2-9.35a3.09,3.09,0,0,0-.6-2c-.78-1-2.21-1-3.92-.08a6.8,6.8,0,0,0-2,1.6,42.91,42.91,0,0,0-4.51,6.71,1.94,1.94,0,0,1-.34.5v0a2.24,2.24,0,0,1,.19-.67A23.74,23.74,0,0,0,19,57.73a9.33,9.33,0,0,0,.06-1,6.76,6.76,0,0,0-.48-2.64,4.19,4.19,0,0,0-4.26-2.56c-2.44,0-5.11,1-7.92,3.06A16.47,16.47,0,0,0,.75,61.44,10.46,10.46,0,0,0,0,64.86a7,7,0,0,0,.31,2.27,5.55,5.55,0,0,0,2.91,3.3,4.94,4.94,0,0,0,4.24.11,8.45,8.45,0,0,0,4.31-3.72,4.93,4.93,0,0,0,.79-2.31A3.93,3.93,0,0,0,12.3,63,2.27,2.27,0,0,0,10,61.53a3.79,3.79,0,0,0-.67.06c-.51,0-.77.15-.85.32a.26.26,0,0,0,0,.26.58.58,0,0,0,.61.24,4.85,4.85,0,0,1,.6,0c1.13,0,1.68.58,1.68,1.79A5.77,5.77,0,0,1,10.47,67c-1.25,2.11-2.86,3.18-4.8,3.18A3.58,3.58,0,0,1,4,69.72C2.5,69,1.72,67.45,1.72,65.13a11,11,0,0,1,.72-3.34,10.83,10.83,0,0,1,1.23-2.38,17.51,17.51,0,0,1,5.26-5.13,10.58,10.58,0,0,1,5.23-2c2.12,0,3.15,1.25,3.15,3.83,0,2.19-.95,5.73-2.81,10.52a49.73,49.73,0,0,1-4,8.53,0,0,0,0,0,0,0,.67.67,0,0,0,0,.24c0,.24.21.54.87.54a1.62,1.62,0,0,0,1.65-.88c.05-.14.12-.29.2-.46a3.79,3.79,0,0,0,.2-.42l1.21-2.69c.75-1.65,1.43-3.1,2-4.32a50.19,50.19,0,0,1,2.5-4.43A51.74,51.74,0,0,1,22.9,57.4c1.06-1.33,2-2,2.9-2a1,1,0,0,1,.7.38,1.49,1.49,0,0,1,.35,1A9.35,9.35,0,0,1,26.79,58,38.19,38.19,0,0,1,25,66c-.36,1-.77,2.08-1.2,3.09s-.81,1.82-1.12,2.4-.61,1.15-.91,1.68-.46.84-.52.92a.48.48,0,0,0,0,.44c.1.41.44.61,1,.61q1.13,0,1.8-1.56a48,48,0,0,1,3.36-5.89c1.76-2.77,3.11-4.74,4-5.85S33.13,59.76,33.9,59c1.48-1.45,2.58-2.18,3.26-2.18.29,0,.66.08.66.8a7.56,7.56,0,0,1-.73,2.6c-1.41,3.09-2.35,5.2-2.8,6.28-.28.68-.62,1.64-1,2.87a11.28,11.28,0,0,0-.6,3.37c0,2.75,1.5,4.29,4.46,4.59a2.17,2.17,0,0,0,.4,0,1.27,1.27,0,0,0,.52-.12c.26-.13.28-.28.25-.38S37.92,76.64,37.81,76.64Z"/><path class="cls-1" d="M62.69,61.61a1.45,1.45,0,0,0-.51.88,1.12,1.12,0,0,0,.25.89,1,1,0,0,0,.83.37,1.38,1.38,0,0,0,.93-.36,1.45,1.45,0,0,0,.51-.87,1,1,0,0,0-.23-.9,1.1,1.1,0,0,0-.85-.37A1.4,1.4,0,0,0,62.69,61.61Z"/><path class="cls-1" d="M109.12,68.37a.23.23,0,0,0-.18,0c-.12,0-.22.16-.33.37a28.35,28.35,0,0,1-1.73,3,7,7,0,0,1-3.7,2.63c.26-.73.61-1.75,1-3,.49-1.43.9-2.6,1.22-3.46a14.52,14.52,0,0,1,.89-2,3.38,3.38,0,0,1,1.1-1.22.12.12,0,0,0-.07-.21h-1.49a1.22,1.22,0,0,0-1.18.65,35.06,35.06,0,0,1-4.33,7.19c-.75.88-1.16,1.06-1.38,1.06a.59.59,0,0,1-.48-.2,1.29,1.29,0,0,1-.18-.79,5.18,5.18,0,0,1,.6-1.86c1-2.09,1.82-3.74,2.49-4.88a2.08,2.08,0,0,1,.71-.74,3.65,3.65,0,0,0,.29-.23.12.12,0,0,0,0-.13.1.1,0,0,0-.1-.07h-1.69a1.18,1.18,0,0,0-1.18.65c-.41.84-.93,1.86-1.55,3l-.13.26a.77.77,0,0,0-.2.29c-1.56,3.13-2.8,4.72-3.68,4.72-.2,0-.41-.07-.41-.6,0-1.19,1.14-3.8,3.38-7.74a.12.12,0,0,0,0-.1.12.12,0,0,0-.07-.07.93.93,0,0,0-.34-.06,5.39,5.39,0,0,0-2.24.83,13.28,13.28,0,0,0-2.58,1.78,17.71,17.71,0,0,0-1.72,1.79c1.29-2.5,2.24-3.92,2.83-4.24a.11.11,0,0,0,0-.14.1.1,0,0,0-.13-.07,1.78,1.78,0,0,1-.63,0,3.77,3.77,0,0,0-.59-.09,1.36,1.36,0,0,0-1,.37,16.72,16.72,0,0,0-2,3.38.38.38,0,0,0-.13.15c0,.08-.14.31-.31.69s-.32.67-.43.86-.28.53-.52,1a7.62,7.62,0,0,1-1.18,1.48,1.8,1.8,0,0,1-1.32.71,1.25,1.25,0,0,1-1.16-.55,10,10,0,0,0,2.29-3.24,6.17,6.17,0,0,0,.62-2.53c0-1.77-.72-2.66-2.14-2.66a4.52,4.52,0,0,0-2.94,1.38A9.48,9.48,0,0,0,78.89,69l-.14.33a15.49,15.49,0,0,1-1.94,3.12q-.82,1-1.44,1c-.11,0-.41,0-.41-.66,0-1.14,1.13-3.72,3.36-7.68a.1.1,0,0,0,0-.09.11.11,0,0,0-.06-.07.67.67,0,0,0-.33-.07,5.42,5.42,0,0,0-2.25.84,14.5,14.5,0,0,0-2.63,1.83,16.33,16.33,0,0,0-1.64,1.67l.71-1.3a6.14,6.14,0,0,0,1-2.18.84.84,0,0,0-.6-.79c-.06-.07-.18-.12-.4,0a1.23,1.23,0,0,1-.32.06.89.89,0,0,0-.44.19l-.4.22a2.29,2.29,0,0,0-.46.31L70,66l-.44.4-.23.2-.23.21-.42.37-.84.75a12.63,12.63,0,0,0-1.21,1.31C68,66.72,68.89,65.3,69.48,65a.12.12,0,0,0,.06-.14.11.11,0,0,0-.14-.07,1.78,1.78,0,0,1-.63,0,3.77,3.77,0,0,0-.59-.09,1.36,1.36,0,0,0-1,.37,15.92,15.92,0,0,0-2,3.42,1,1,0,0,0-.18.26,17.68,17.68,0,0,1-2.57,4.14,1.58,1.58,0,0,1-1,.49c-.51,0-.74-.21-.74-.68a4.22,4.22,0,0,1,.46-1.7l2.2-5.16c.21-.37.27-.64.17-.84s-.37-.3-.85-.3l-1.52,0a.12.12,0,0,0-.1.07.11.11,0,0,0,0,.11,1.26,1.26,0,0,1,.31.65,1.47,1.47,0,0,1-.05.41L60,69.26c-1.66,3.25-2.56,4-3,4a.33.33,0,0,1-.3-.13c-.13-.17-.2-.63.19-1.81a12.55,12.55,0,0,1,.48-1.21c.2-.45.37-.82.52-1.12l.5-1,.59-1.22a3,3,0,0,0,.35-1.12c0-.34,0-.45-.08-.5a.09.09,0,0,0-.11-.05c-.92.09-1.71.13-2.32.13H55.63A2.94,2.94,0,0,0,57,63a2,2,0,0,0-.09-.62c-.2-.56-.53-.85-1-.85s-.77.32-.89,1c-.08.46-.18.93-.3,1.4a.55.55,0,0,0,0-.18.29.29,0,0,0-.29-.23H53.28c.38-.73.77-1.53,1.16-2.36a5.7,5.7,0,0,0,.64-2.35,1.37,1.37,0,0,0-.7-1.37,1.53,1.53,0,0,0-.5-.06,2.32,2.32,0,0,0-1.11.53,6.72,6.72,0,0,0-1.61,2c-.56,1-1.17,2.17-1.82,3.6H47.75a.32.32,0,0,0-.31.22.5.5,0,0,0,0,.38.28.28,0,0,0,.29.23H49a40.38,40.38,0,0,0-1.72,5,19.87,19.87,0,0,1-2,3.13c-.62.76-1,.92-1.21.92s-.3,0-.3-.43A7,7,0,0,1,44,71.47,11.43,11.43,0,0,1,45,68.87a10.73,10.73,0,0,1,1.38-2.22.12.12,0,0,0-.11-.2,1.36,1.36,0,0,1-.62,0,4.67,4.67,0,0,0-.59-.08,1.34,1.34,0,0,0-1,.41,6.39,6.39,0,0,0-.9,1.42c-1.76,3.34-3.19,5-4.24,5-.14,0-.58,0-.58-1a6.09,6.09,0,0,1,1.07-2.82,14.34,14.34,0,0,1,1.84-2.57C42.42,65.61,43.38,65,44.13,65a1.17,1.17,0,0,1,1.22.92.12.12,0,0,0,.09.08.52.52,0,0,0,.6-.29.66.66,0,0,0-.2-.71,3.22,3.22,0,0,0-3.26-.78,6.28,6.28,0,0,0-3.32,2.06,8.75,8.75,0,0,0-2.38,5.58,2.38,2.38,0,0,0,.88,2.08,1.39,1.39,0,0,0,.87.3c1,0,2.19-1,3.54-3a5.27,5.27,0,0,0-.12,1,2.25,2.25,0,0,0,.27,1.17,1.6,1.6,0,0,0,1.4.83c.9,0,1.93-1,3.11-2.88,0,.17,0,.34,0,.5a2.47,2.47,0,0,0,.58,1.68,1.92,1.92,0,0,0,1.5.67,3.09,3.09,0,0,0,2.19-1.07l.1-.07c1.07-1,2.21-3.11,3.37-6.15l.3-.81c1.34.05,2,.31,2,.8a1,1,0,0,1-.07.36c0,.12-.31.59-.77,1.38a16,16,0,0,0-1,2A4.16,4.16,0,0,0,54.69,72a2.55,2.55,0,0,0,.09.78,1.65,1.65,0,0,0,1.6,1.38,2.91,2.91,0,0,0,2.1-1.31c.26-.3.49-.59.69-.86v.06a2.37,2.37,0,0,0,.46,1.43,1.79,1.79,0,0,0,1.54.65,2.54,2.54,0,0,0,1.62-.72c-.13.27-.25.51-.35.69a.14.14,0,0,0,0,.14.13.13,0,0,0,.08,0h.06a1.89,1.89,0,0,1,.75-.13,3.78,3.78,0,0,0,.85-.1.76.76,0,0,0,.41-.43,19.6,19.6,0,0,1,3.79-5.36,8,8,0,0,1,1.49-1.2.84.84,0,0,1,.26-.09s0,.05,0,.27a5.24,5.24,0,0,1-.51,1.38A13.08,13.08,0,0,0,68.12,73a1.52,1.52,0,0,0,.24.72.85.85,0,0,0,.79.44.1.1,0,0,0,.11-.09,9.73,9.73,0,0,1,1.55-3,18.71,18.71,0,0,1,2.48-3c1-.89,1.38-1.07,1.57-1.07.34,0,.34.12.34.17a1.57,1.57,0,0,1-.28.73,14.83,14.83,0,0,0-1.54,2.9,5.61,5.61,0,0,0-.28,1.54,1.82,1.82,0,0,0,.27,1,1.72,1.72,0,0,0,1.44.82,2.53,2.53,0,0,0,1.47-.45,5.52,5.52,0,0,0,1-.88,8.23,8.23,0,0,0,1-1.36c0,1.71.74,2.58,2.13,2.58a4.09,4.09,0,0,0,2.34-.9,2.39,2.39,0,0,0,1.78.68,2.6,2.6,0,0,0,1.36-.43l.18-.12c-.16.33-.3.6-.4.8a.11.11,0,0,0,0,.13.09.09,0,0,0,.08,0l0,0a2,2,0,0,1,.75-.12,3.87,3.87,0,0,0,.85-.1.85.85,0,0,0,.44-.41,19.23,19.23,0,0,1,3.82-5.44c1.07-1,1.53-1.21,1.72-1.21.35,0,.35.12.35.17a1.57,1.57,0,0,1-.28.73,15.42,15.42,0,0,0-1.54,2.9,5.61,5.61,0,0,0-.28,1.54,1.66,1.66,0,0,0,.3,1,1.84,1.84,0,0,0,1.63.82,2.94,2.94,0,0,0,2.1-1.15,11.11,11.11,0,0,0,1-1.45q0,.16-.06.51a1.06,1.06,0,0,0,.06.64,1.64,1.64,0,0,0,1.85,1.32A3.2,3.2,0,0,0,100.83,73,17.84,17.84,0,0,0,103,69.89a31.12,31.12,0,0,1-2,5.18c-.46.13-1.45.38-2.94.74a20.74,20.74,0,0,0-3.75,1.24,5.36,5.36,0,0,0-2.66,2.32,4.18,4.18,0,0,0-.42,1.68,1.62,1.62,0,0,0,.71,1.32,3.1,3.1,0,0,0,2,.54,6.87,6.87,0,0,0,4.44-1.69,20.18,20.18,0,0,0,4.29-5.69,20.54,20.54,0,0,0,2.41-1,6.13,6.13,0,0,0,1.69-1.34,11.12,11.12,0,0,0,1.23-1.64c.31-.52.63-1.1.93-1.72.47-1,.47-1.06.47-1.12A.37.37,0,0,0,109.12,68.37ZM82.3,72.71a2.33,2.33,0,0,1-1.4.65c-.36,0-.85-.12-.85-1.15A7.83,7.83,0,0,1,81,69a9,9,0,0,1,1.8-2.67,2.72,2.72,0,0,1,1.69-1c.61,0,.9.41.9,1.24a6.21,6.21,0,0,1-.68,2.72c-.29.61-.56,1.12-.8,1.53a.91.91,0,0,0-.27-.48.88.88,0,0,0-.67-.29c-.47,0-1,.23-1.09,1.31A2.42,2.42,0,0,0,82.3,72.71Zm-31-9.27a31.09,31.09,0,0,1,2-4c.53-.76.76-.84.83-.84s.08.05.08.44c0,.81-.6,2.3-1.78,4.42Zm-1.6,3.87c.62-1.56,1-2.55,1.23-3h1A21.55,21.55,0,0,1,49.67,67.31Zm50.65,8.92-.46.77a23.38,23.38,0,0,1-3.19,3.51,5.26,5.26,0,0,1-3.36,1.62,1.52,1.52,0,0,1-.9-.26.8.8,0,0,1-.33-.69,2.36,2.36,0,0,1,.29-1.07,4.84,4.84,0,0,1,2.48-2.24A47,47,0,0,1,100.32,76.23ZM54.67,64.06a30.44,30.44,0,0,1-1.22,3.68c-.27.66-.56,1.28-.86,1.88a10.68,10.68,0,0,1-2.43,3.26,2.1,2.1,0,0,1-1,.32.52.52,0,0,1-.5-.3,1.36,1.36,0,0,1-.18-.65,2.68,2.68,0,0,1,.08-.68l.62-2.79a19.91,19.91,0,0,0,3.64-4.51h1.54A.34.34,0,0,0,54.67,64.06Z"/><path class="cls-1" d="M152.65,63.75a1.4,1.4,0,0,0,.93-.36h0a1.45,1.45,0,0,0,.51-.87,1,1,0,0,0-.24-.9,1.08,1.08,0,0,0-.84-.37,1.42,1.42,0,0,0-.94.36,1.55,1.55,0,0,0-.51.88,1.16,1.16,0,0,0,.25.89A1.07,1.07,0,0,0,152.65,63.75Z"/><path class="cls-1" d="M168.41,63.44h-1.14c.38-.73.77-1.53,1.16-2.36a5.7,5.7,0,0,0,.64-2.35,1.37,1.37,0,0,0-.7-1.37,1.53,1.53,0,0,0-.5-.06,2.32,2.32,0,0,0-1.11.53,6.72,6.72,0,0,0-1.61,2c-.56,1-1.17,2.17-1.82,3.6h-1.59a.32.32,0,0,0-.31.22.5.5,0,0,0,0,.38.28.28,0,0,0,.29.23H163a42.06,42.06,0,0,0-1.73,5,22.63,22.63,0,0,1-1.72,2.95,2.87,2.87,0,0,1-2.1,1.26h-.2a5.27,5.27,0,0,0,1.18-1.3,3.36,3.36,0,0,0,.6-1.86,6.13,6.13,0,0,0-.65-2.4l-.49-1.08a3,3,0,0,1-.21-1.22c0-.94.28-1.53.87-1.81a.93.93,0,0,1,.82.06.46.46,0,0,0,.37,0,.32.32,0,0,0,.18-.18c.07-.15.06-.36-.33-.55a1.85,1.85,0,0,0-.81-.19c-1,0-1.92.81-2.68,2.41-.43.94-.93,2-1.49,3.06a1,1,0,0,0-.16.26c-.28.54-.54,1-.79,1.49a1.22,1.22,0,0,0-.68.51,1.72,1.72,0,0,0-.37,1,.81.81,0,0,0,0,.16,6.82,6.82,0,0,1-.75.93,1.58,1.58,0,0,1-1,.49c-.5,0-.74-.21-.74-.68a4.39,4.39,0,0,1,.46-1.7l2.21-5.16c.2-.37.26-.64.17-.84s-.38-.3-.85-.3l-1.52,0a.12.12,0,0,0-.11.07.14.14,0,0,0,0,.12,1.25,1.25,0,0,1,.3.64,1.48,1.48,0,0,1,0,.41l-1.19,3a24.27,24.27,0,0,1-1.89,3.27,2.85,2.85,0,0,1-2.1,1.26h-.2a5.27,5.27,0,0,0,1.18-1.3,3.36,3.36,0,0,0,.6-1.86,6.27,6.27,0,0,0-.64-2.4c-.19-.39-.35-.75-.5-1.08a3,3,0,0,1-.21-1.22c0-.94.28-1.53.87-1.81a.93.93,0,0,1,.82.06.46.46,0,0,0,.37,0,.32.32,0,0,0,.18-.18c.07-.15.06-.36-.33-.55a1.81,1.81,0,0,0-.81-.19c-1,0-1.92.81-2.68,2.41-.46,1-1,2.13-1.62,3.32-.28.55-.54,1-.77,1.47a1.19,1.19,0,0,0-.73.53,1.72,1.72,0,0,0-.37,1c0,.09,0,.18,0,.26a1.15,1.15,0,0,1-.15.2,2.85,2.85,0,0,1-2.09,1.26h-.21a5.51,5.51,0,0,0,1.19-1.3,3.44,3.44,0,0,0,.6-1.86,6.31,6.31,0,0,0-.65-2.4c-.19-.39-.35-.75-.5-1.08a3,3,0,0,1-.21-1.22,1.78,1.78,0,0,1,.88-1.81.91.91,0,0,1,.81.06.46.46,0,0,0,.37,0,.33.33,0,0,0,.19-.18c.06-.15.05-.36-.34-.55a1.78,1.78,0,0,0-.81-.19c-1,0-1.92.81-2.67,2.41-.46,1-1,2.07-1.57,3.22a1.26,1.26,0,0,0-.18.27,14.32,14.32,0,0,1-.65,1.3,1.23,1.23,0,0,0-.73.53,1.79,1.79,0,0,0-.37,1s0,.1,0,.15l-.64.87c-1.16,1.4-2.17,2.11-3,2.11a.89.89,0,0,1-.7-.39,2.26,2.26,0,0,1-.32-1.34,12.66,12.66,0,0,1,1.54-5.54,15.26,15.26,0,0,1,2.22-3.37,2.44,2.44,0,0,0,.72-1.68c0-.76-.41-.92-.75-.92-.57,0-1.18.62-1.86,1.91a26.31,26.31,0,0,1-3,4.27,33.36,33.36,0,0,1-4.1,4.19c-1.94,1.59-3.67,2.4-5.13,2.4-1.27,0-2-.72-2.2-2.19a4.39,4.39,0,0,1,0-.54,11.87,11.87,0,0,1,1-4,34.68,34.68,0,0,1,3.78-6.47,20.59,20.59,0,0,0,6,.75,19.36,19.36,0,0,0,6.35-.94,8.19,8.19,0,0,0,2.72-1.46,4.52,4.52,0,0,0,1.92-3.35,3.16,3.16,0,0,0-1.33-2.62,5.68,5.68,0,0,0-3.54-1c-4.65,0-9.2,2.42-13.52,7.19a6.74,6.74,0,0,1-2.23-1.57,2.51,2.51,0,0,1-.78-1.58,1.57,1.57,0,0,1,.15-.64.77.77,0,0,0,0-.74.41.41,0,0,0-.28-.12.53.53,0,0,0-.38.26c-.31.21-.45.67-.45,1.41a2.74,2.74,0,0,0,.69,1.87,8.43,8.43,0,0,0,2.67,1.87,20.56,20.56,0,0,0-2.35,3.42,14.57,14.57,0,0,0-2.12,7c0,2.19.7,3.59,2,4.16a2.57,2.57,0,0,0,1.15.34,5,5,0,0,0,.66,0,8.58,8.58,0,0,0,3.73-1.23,25.54,25.54,0,0,0,5.3-4.61,6.65,6.65,0,0,0-.29.92,9.58,9.58,0,0,0-.3,2.38,3.89,3.89,0,0,0,.58,2.12,1.92,1.92,0,0,0,1.74.92,4.36,4.36,0,0,0,2.26-.69,6.62,6.62,0,0,0,1.88-1.73c.13-.18.26-.36.38-.55a2.28,2.28,0,0,0,2.35,1.31,3,3,0,0,0,1.14-.27,3.49,3.49,0,0,0,2-.06,2.79,2.79,0,0,0,1.15-.7l.37-.39a2.28,2.28,0,0,0,2.4,1.42,3,3,0,0,0,1.14-.27,3.45,3.45,0,0,0,2-.06,2.83,2.83,0,0,0,1.16-.7l.57-.6a2.36,2.36,0,0,0,.42-.5,2.5,2.5,0,0,0,.46,1.37,1.81,1.81,0,0,0,1.55.65,3.16,3.16,0,0,0,2.19-1.29,2.25,2.25,0,0,0,2.38,1.4,3,3,0,0,0,1.15-.27,3.45,3.45,0,0,0,2-.06,2.83,2.83,0,0,0,1.16-.7l.57-.6a3.24,3.24,0,0,0,.58-.72l.21-.34c0,.08,0,.18,0,.26a2.47,2.47,0,0,0,.58,1.68,1.92,1.92,0,0,0,1.5.67c1.16,0,2.26-.83,3.27-2.46A25.15,25.15,0,0,0,167.6,69a.94.94,0,0,0,.09-.47.23.23,0,0,0-.11-.15.28.28,0,0,0-.22,0,.59.59,0,0,0-.33.36,12.25,12.25,0,0,1-2.88,4.13,2.1,2.1,0,0,1-1,.32.52.52,0,0,1-.5-.3,1.36,1.36,0,0,1-.18-.65,2.68,2.68,0,0,1,.08-.68l.62-2.79a19.91,19.91,0,0,0,3.64-4.51h1.54a.32.32,0,0,0,.31-.21.59.59,0,0,0,0-.39A.29.29,0,0,0,168.41,63.44ZM168.18,59c0,.81-.6,2.3-1.78,4.42h-1.14a31.09,31.09,0,0,1,2-4c.53-.76.76-.84.83-.84S168.18,58.63,168.18,59Zm-2.28,5.25a21.55,21.55,0,0,1-2.24,3c.62-1.56,1-2.55,1.23-3Zm-11.6,7.52a2.46,2.46,0,0,0,.94,1.76,1.39,1.39,0,0,1-.3,0,.85.85,0,0,1-.91-.64,2.11,2.11,0,0,1,0-.35A1.25,1.25,0,0,1,154.3,71.79Zm.62-.64c0-.62-.25-.85-.51-.92v0l.05-.11c.39-.73,1.12-2.18,2.21-4.35v.18a18.52,18.52,0,0,0,.19,2,19.26,19.26,0,0,1,.2,2.34A3.54,3.54,0,0,1,156,73.2,2.08,2.08,0,0,1,154.92,71.15Zm-12.51.64a2.5,2.5,0,0,0,.94,1.76,1.39,1.39,0,0,1-.3,0,.85.85,0,0,1-.91-.64c0-.12,0-.24,0-.35A1.25,1.25,0,0,1,142.41,71.79Zm.62-.64c0-.58-.21-.81-.45-.89.13-.27.24-.49.3-.65s.15-.35.24-.52a.53.53,0,0,1,.06-.13c.4-.8.94-1.86,1.61-3.21v.18c0,.36.07,1,.19,2a19.26,19.26,0,0,1,.2,2.34,3.54,3.54,0,0,1-1.12,2.9A2.08,2.08,0,0,1,143,71.15Zm-7.7.64a2.53,2.53,0,0,0,.94,1.76,1.39,1.39,0,0,1-.3,0,.84.84,0,0,1-.9-.64,2.26,2.26,0,0,1,0-.35A1.31,1.31,0,0,1,135.33,71.79Zm.62-.64c0-.61-.23-.84-.49-.91.13-.25.25-.51.37-.76.42-.82,1-2.06,1.88-3.73v.18a19.64,19.64,0,0,0,.2,2,21.07,21.07,0,0,1,.19,2.34A3.54,3.54,0,0,1,137,73.2,2.08,2.08,0,0,1,136,71.15Zm-14.18-10.7c.84-1,1.63-1.85,2.36-2.57a23.75,23.75,0,0,1,2.61-2.2,11.05,11.05,0,0,1,3.15-1.61,10.68,10.68,0,0,1,3.38-.55,4.83,4.83,0,0,1,2.63.62,1.93,1.93,0,0,1,.93,1.73,4,4,0,0,1-2,3.38c-1.71,1.2-4.47,1.81-8.2,1.81A17.3,17.3,0,0,1,121.77,60.45Z"/></g></g></svg>