<svg xmlns="http://www.w3.org/2000/svg" viewBox="0 0 345.81 382.22"><defs><style>.cls-1{fill:none;stroke:#fff;stroke-miterlimit:10;stroke-width:5px;}.cls-2{fill:#1a1a1a;}</style></defs><g id="Layer_2" data-name="Layer 2"><g id="Layer_1-2" data-name="Layer 1"><path class="cls-1" d="M227.76,81.39a14.53,14.53,0,1,0-.6,29.06L304,112h.32c.43,0,.87,0,1.31-.07l.3,0c.34,0,.68-.08,1-.14l.33-.07c.34-.07.68-.16,1-.25l.26-.07a14.62,14.62,0,0,0,2.47-1,1.18,1.18,0,0,0,.19-.11c.31-.17.62-.34.92-.54l.39-.26c.14-.1.29-.19.43-.3s.14-.11.22-.17l.58-.48.54-.48a1.29,1.29,0,0,0,.17-.16c.1-.09.19-.2.29-.3s.39-.41.57-.62.23-.29.35-.44.37-.47.54-.71l.29-.44c.16-.25.32-.51.47-.77s.17-.32.25-.48.26-.52.37-.78.15-.36.22-.54.2-.51.28-.77a6.13,6.13,0,0,0,.18-.61c.07-.24.14-.49.19-.74s.09-.43.13-.65.08-.5.12-.75l.06-.66c0-.26,0-.52,0-.78,0-.11,0-.22,0-.34V17.36a14.54,14.54,0,0,0-29.07,0v43C264,36.26,220.72,5.3,166.65,2.68c-53.49-2.59-105,23-153,76.07a14.53,14.53,0,1,0,21.55,19.5C77.07,52,120.77,29.61,165.06,31.7c45.42,2.14,83.07,29.61,105.43,50.58Z"/><path class="cls-2" d="M227.76,81.39a14.53,14.53,0,1,0-.6,29.06L304,112h.32c.43,0,.87,0,1.31-.07l.3,0c.34,0,.68-.08,1-.14l.33-.07c.34-.07.68-.16,1-.25l.26-.07a14.62,14.62,0,0,0,2.47-1,1.18,1.18,0,0,0,.19-.11c.31-.17.62-.34.92-.54l.39-.26c.14-.1.29-.19.43-.3s.14-.11.22-.17l.58-.48.54-.48a1.29,1.29,0,0,0,.17-.16c.1-.09.19-.2.29-.3s.39-.41.57-.62.23-.29.35-.44.37-.47.54-.71l.29-.44c.16-.25.32-.51.47-.77s.17-.32.25-.48.26-.52.37-.78.15-.36.22-.54.2-.51.28-.77a6.13,6.13,0,0,0,.18-.61c.07-.24.14-.49.19-.74s.09-.43.13-.65.08-.5.12-.75l.06-.66c0-.26,0-.52,0-.78,0-.11,0-.22,0-.34V17.36a14.54,14.54,0,0,0-29.07,0v43C264,36.26,220.72,5.3,166.65,2.68c-53.49-2.59-105,23-153,76.07a14.53,14.53,0,1,0,21.55,19.5C77.07,52,120.77,29.61,165.06,31.7c45.42,2.14,83.07,29.61,105.43,50.58Z"/><path class="cls-1" d="M27.46,135.62a14.54,14.54,0,0,0-25,10.13V365.18a14.53,14.53,0,0,0,25,10.13L134,265.59a14.55,14.55,0,0,0,0-20.25Zm4.1,193.74V181.57l71.75,73.9Z"/><path class="cls-2" d="M27.46,135.62a14.54,14.54,0,0,0-25,10.13V365.18a14.53,14.53,0,0,0,25,10.13L134,265.59a14.55,14.55,0,0,0,0-20.25Zm4.1,193.74V181.57l71.75,73.9Z"/><path class="cls-1" d="M334.24,132.28a14.55,14.55,0,0,0-15.89,3.34L211.81,245.34a14.53,14.53,0,0,0,0,20.25L318.35,375.31a14.54,14.54,0,0,0,25-10.13V145.75A14.53,14.53,0,0,0,334.24,132.28Z"/><path class="cls-2" d="M334.24,132.28a14.55,14.55,0,0,0-15.89,3.34L211.81,245.34a14.53,14.53,0,0,0,0,20.25L318.35,375.31a14.54,14.54,0,0,0,25-10.13V145.75A14.53,14.53,0,0,0,334.24,132.28Z"/></g></g></svg>